<?xml version="1.0" encoding="UTF-8" standalone="no" ?>
<!DOCTYPE svg PUBLIC "-//W3C//DTD SVG 1.1//EN" "http://www.w3.org/Graphics/SVG/1.1/DTD/svg11.dtd">
<svg xmlns="http://www.w3.org/2000/svg" xmlns:xlink="http://www.w3.org/1999/xlink" version="1.1" width="1280" height="1024" viewBox="0 0 1280 1024" xml:space="preserve">
<desc>Created with Fabric.js 5.3.0</desc>
<defs>
</defs>
<g transform="matrix(1 0 0 1 640 512)" id="background-logo"  >
<rect style="stroke: none; stroke-width: 0; stroke-dasharray: none; stroke-linecap: butt; stroke-dashoffset: 0; stroke-linejoin: miter; stroke-miterlimit: 4; fill: rgb(255,255,255); fill-opacity: 0; fill-rule: nonzero; opacity: 1;"  paint-order="stroke"  x="-640" y="-512" rx="0" ry="0" width="1280" height="1024" />
</g>
<g transform="matrix(1.9211538461538462 0 0 1.9211538461538462 640 398.104816808396)" id="logo-logo"  >
<g style=""  paint-order="stroke"   >
		<g transform="matrix(0.4095754685631657 0 0 -0.4095754685631657 -48.745788221232544 -12.964169433789351)"  >
<path style="stroke: none; stroke-width: 1; stroke-dasharray: none; stroke-linecap: butt; stroke-dashoffset: 0; stroke-linejoin: miter; stroke-miterlimit: 4; fill: rgb(247,210,107); fill-rule: nonzero; opacity: 1;"  paint-order="stroke"  transform=" translate(-14.096500000000006, -30.656999999999996)" d="M 0 0 L 73.75 10.543 L 57.504000000000005 17.939999999999998 L 99.274 22.403999999999996 C 99.534 25.121999999999996 99.691 27.870999999999995 99.691 30.656999999999996 C 99.691 77.929 61.369 116.25099999999999 14.097000000000008 116.25099999999999 C -18.127999999999993 116.25099999999999 -46.16499999999999 98.42499999999998 -60.766999999999996 72.11399999999999 L -44.628 66.865 L -51.259 61.653999999999996 L 6.9879999999999995 52.708999999999996 L -70.829 40.897999999999996 C -71.22999999999999 37.534 -71.49799999999999 34.129 -71.49799999999999 30.656999999999996 C -71.49799999999999 -16.616000000000007 -33.17599999999999 -54.937 14.097000000000008 -54.937 C 48.156000000000006 -54.937 77.48100000000001 -34.994 91.263 -6.192 z" stroke-linecap="round" />
</g>
		<g transform="matrix(0.4095754685631657 0 0 -0.4095754685631657 -10.230294138676982 -3.286105899375997)"  >
<path style="stroke: none; stroke-width: 1; stroke-dasharray: none; stroke-linecap: butt; stroke-dashoffset: 0; stroke-linejoin: miter; stroke-miterlimit: 4; fill: rgb(188,165,132); fill-rule: nonzero; opacity: 1;"  paint-order="stroke"  transform=" translate(-20.076, -74.73400000000001)" d="M 0 0 L 0.549 128.276 L 40.152 149.46800000000002 z" stroke-linecap="round" />
</g>
		<g transform="matrix(0.4095754685631657 0 0 -0.4095754685631657 -120.16489618873169 70.50953694250717)"  >
<path style="stroke: none; stroke-width: 1; stroke-dasharray: none; stroke-linecap: butt; stroke-dashoffset: 0; stroke-linejoin: miter; stroke-miterlimit: 4; fill: rgb(216,161,111); fill-rule: nonzero; opacity: 1;"  paint-order="stroke"  transform=" translate(-45.016, -49.361765389545866)" d="M 0 0 L 90.032 0 C 90.032 0 60.44199999999999 99.72 59.768 98.716 C 59.094 97.711 0 0 0 0" stroke-linecap="round" />
</g>
		<g transform="matrix(0.4095754685631657 0 0 -0.4095754685631657 19.794208990001778 -11.853687465874003)"  >
<path style="stroke: none; stroke-width: 1; stroke-dasharray: none; stroke-linecap: butt; stroke-dashoffset: 0; stroke-linejoin: miter; stroke-miterlimit: 4; fill: rgb(188,165,132); fill-rule: nonzero; opacity: 1;"  paint-order="stroke"  transform=" translate(-1.2964999999999982, -95.6395)" d="M 0 0 L 21.775 191.279 L -19.182 175.412 L -6.828 46.595 Z" stroke-linecap="round" />
</g>
		<g transform="matrix(0.4095754685631657 0 0 -0.4095754685631657 89.38575025922535 45.77538309302503)"  >
<path style="stroke: none; stroke-width: 1; stroke-dasharray: none; stroke-linecap: butt; stroke-dashoffset: 0; stroke-linejoin: miter; stroke-miterlimit: 4; fill: rgb(169,199,234); fill-rule: nonzero; opacity: 1;"  paint-order="stroke"  transform=" translate(46.1935, -109.7515)" d="M 0 0 L -0.929 219.503 L -92.387 211.924 L -89.37 0 Z" stroke-linecap="round" />
</g>
		<g transform="matrix(0.4095754685631657 0 0 -0.4095754685631657 117.54467808614578 59.030473982134765)"  >
<path style="stroke: none; stroke-width: 1; stroke-dasharray: none; stroke-linecap: butt; stroke-dashoffset: 0; stroke-linejoin: miter; stroke-miterlimit: 4; fill: rgb(169,199,234); fill-rule: nonzero; opacity: 1;"  paint-order="stroke"  transform=" translate(-22.558, -77.3885)" d="M 0 0 L 28.493 154.777 L 45.116 0 Z" stroke-linecap="round" />
</g>
		<g transform="matrix(0.4095754685631657 0 0 -0.4095754685631657 -78.39638990466005 48.72145943839993)"  >
<path style="stroke: none; stroke-width: 1; stroke-dasharray: none; stroke-linecap: butt; stroke-dashoffset: 0; stroke-linejoin: miter; stroke-miterlimit: 4; fill: rgb(160,216,224); fill-rule: nonzero; opacity: 1;"  paint-order="stroke"  transform=" translate(44.274499999999996, 38.9825)" d="M 0 0 L 16.518 63.576 L -105.067 46.063 L -70.256 -141.541 L -19.835 -141.541 z" stroke-linecap="round" />
</g>
		<g transform="matrix(0.4095754685631657 0 0 -0.4095754685631657 47.29646446817503 56.71026991027139)"  >
<path style="stroke: none; stroke-width: 1; stroke-dasharray: none; stroke-linecap: butt; stroke-dashoffset: 0; stroke-linejoin: miter; stroke-miterlimit: 4; fill: rgb(158,160,204); fill-rule: nonzero; opacity: 1;"  paint-order="stroke"  transform=" translate(56.57, 83.053)" d="M 0 0 L -113.14 -7.164 L -102.327 -166.106 L -31.164 -166.106 z" stroke-linecap="round" />
</g>
		<g transform="matrix(0.4095754685631657 0 0 -0.4095754685631657 -42.26495270951693 48.72141848085312)"  >
<path style="stroke: none; stroke-width: 1; stroke-dasharray: none; stroke-linecap: butt; stroke-dashoffset: 0; stroke-linejoin: miter; stroke-miterlimit: 4; fill: rgb(221,106,75); fill-rule: nonzero; opacity: 1;"  paint-order="stroke"  transform=" translate(35.546, 102.5585)" d="M 0 0 L -62.97 -20.13 L -96.277 -205.117 L 25.185 -205.117 Z" stroke-linecap="round" />
</g>
		<g transform="matrix(0.4095754685631657 0 0 -0.4095754685631657 13.794624653848132 3.911978172887359)"  >
<path style="stroke: none; stroke-width: 1; stroke-dasharray: none; stroke-linecap: butt; stroke-dashoffset: 0; stroke-linejoin: miter; stroke-miterlimit: 4; fill: rgb(188,165,132); fill-rule: nonzero; opacity: 1;"  paint-order="stroke"  transform=" translate(-30.782, -210.056)" d="M 0 0 L 0 420.112 L 61.564 0 Z" stroke-linecap="round" />
</g>
		<g transform="matrix(0.4095754685631657 0 0 -0.4095754685631657 47.023932951393135 66.51911089179691)"  >
<path style="stroke: none; stroke-width: 1; stroke-dasharray: none; stroke-linecap: butt; stroke-dashoffset: 0; stroke-linejoin: miter; stroke-miterlimit: 4; fill: rgb(71,68,109); fill-rule: nonzero; opacity: 1;"  paint-order="stroke"  transform=" translate(-614.8115, -337.59000000000003)" d="M 635.603 341.591 L 594.02 341.591 L 594.02 333.589 L 635.603 333.589 z" stroke-linecap="round" />
</g>
		<g transform="matrix(0.4095754685631657 0 0 -0.4095754685631657 62.50035639425511 66.51911089179691)"  >
<path style="stroke: none; stroke-width: 1; stroke-dasharray: none; stroke-linecap: butt; stroke-dashoffset: 0; stroke-linejoin: miter; stroke-miterlimit: 4; fill: rgb(71,68,109); fill-rule: nonzero; opacity: 1;"  paint-order="stroke"  transform=" translate(-652.598, -337.59000000000003)" d="M 664.314 341.591 L 640.882 341.591 L 640.882 333.589 L 664.314 333.589 z" stroke-linecap="round" />
</g>
		<g transform="matrix(0.4095754685631657 0 0 -0.4095754685631657 62.50035639425511 74.1638370125284)"  >
<path style="stroke: none; stroke-width: 1; stroke-dasharray: none; stroke-linecap: butt; stroke-dashoffset: 0; stroke-linejoin: miter; stroke-miterlimit: 4; fill: rgb(71,68,109); fill-rule: nonzero; opacity: 1;"  paint-order="stroke"  transform=" translate(-652.598, -318.92499999999995)" d="M 664.314 322.926 L 640.882 322.926 L 640.882 314.924 L 664.314 314.924 z" stroke-linecap="round" />
</g>
		<g transform="matrix(0.4095754685631657 0 0 -0.4095754685631657 47.023932951393135 35.87016900374658)"  >
<path style="stroke: none; stroke-width: 1; stroke-dasharray: none; stroke-linecap: butt; stroke-dashoffset: 0; stroke-linejoin: miter; stroke-miterlimit: 4; fill: rgb(71,68,109); fill-rule: nonzero; opacity: 1;"  paint-order="stroke"  transform=" translate(-614.8115, -412.42100000000005)" d="M 635.603 416.422 L 594.02 416.422 L 594.02 408.42 L 635.603 408.42 z" stroke-linecap="round" />
</g>
		<g transform="matrix(0.4095754685631657 0 0 -0.4095754685631657 47.023932951393135 43.58493252960241)"  >
<path style="stroke: none; stroke-width: 1; stroke-dasharray: none; stroke-linecap: butt; stroke-dashoffset: 0; stroke-linejoin: miter; stroke-miterlimit: 4; fill: rgb(71,68,109); fill-rule: nonzero; opacity: 1;"  paint-order="stroke"  transform=" translate(-614.8115, -393.58500000000004)" d="M 635.603 397.586 L 594.02 397.586 L 594.02 389.584 L 635.603 389.584 z" stroke-linecap="round" />
</g>
		<g transform="matrix(0.4095754685631657 0 0 -0.4095754685631657 47.023932951393135 51.22965865033396)"  >
<path style="stroke: none; stroke-width: 1; stroke-dasharray: none; stroke-linecap: butt; stroke-dashoffset: 0; stroke-linejoin: miter; stroke-miterlimit: 4; fill: rgb(71,68,109); fill-rule: nonzero; opacity: 1;"  paint-order="stroke"  transform=" translate(-614.8115, -374.91999999999996)" d="M 635.603 378.921 L 594.02 378.921 L 594.02 370.919 L 635.603 370.919 z" stroke-linecap="round" />
</g>
		<g transform="matrix(0.4095754685631657 0 0 -0.4095754685631657 47.023932951393135 58.87438477106542)"  >
<path style="stroke: none; stroke-width: 1; stroke-dasharray: none; stroke-linecap: butt; stroke-dashoffset: 0; stroke-linejoin: miter; stroke-miterlimit: 4; fill: rgb(71,68,109); fill-rule: nonzero; opacity: 1;"  paint-order="stroke"  transform=" translate(-614.8115, -356.255)" d="M 635.603 360.256 L 594.02 360.256 L 594.02 352.25399999999996 L 635.603 352.25399999999996 z" stroke-linecap="round" />
</g>
		<g transform="matrix(0.4095754685631657 0 0 -0.4095754685631657 47.023932951393135 74.1638370125284)"  >
<path style="stroke: none; stroke-width: 1; stroke-dasharray: none; stroke-linecap: butt; stroke-dashoffset: 0; stroke-linejoin: miter; stroke-miterlimit: 4; fill: rgb(71,68,109); fill-rule: nonzero; opacity: 1;"  paint-order="stroke"  transform=" translate(-614.8115, -318.92499999999995)" d="M 635.603 322.926 L 594.02 322.926 L 594.02 314.924 L 635.603 314.924 z" stroke-linecap="round" />
</g>
		<g transform="matrix(0.4095754685631657 0 0 -0.4095754685631657 47.023932951393135 81.80856313325984)"  >
<path style="stroke: none; stroke-width: 1; stroke-dasharray: none; stroke-linecap: butt; stroke-dashoffset: 0; stroke-linejoin: miter; stroke-miterlimit: 4; fill: rgb(71,68,109); fill-rule: nonzero; opacity: 1;"  paint-order="stroke"  transform=" translate(-614.8115, -300.26)" d="M 635.603 304.261 L 594.02 304.261 L 594.02 296.259 L 635.603 296.259 z" stroke-linecap="round" />
</g>
		<g transform="matrix(0.4095754685631657 0 0 -0.4095754685631657 62.50035639425511 43.58493252960241)"  >
<path style="stroke: none; stroke-width: 1; stroke-dasharray: none; stroke-linecap: butt; stroke-dashoffset: 0; stroke-linejoin: miter; stroke-miterlimit: 4; fill: rgb(71,68,109); fill-rule: nonzero; opacity: 1;"  paint-order="stroke"  transform=" translate(-652.598, -393.58500000000004)" d="M 664.314 397.586 L 640.882 397.586 L 640.882 389.584 L 664.314 389.584 z" stroke-linecap="round" />
</g>
		<g transform="matrix(0.4095754685631657 0 0 -0.4095754685631657 62.50035639425511 58.87438477106542)"  >
<path style="stroke: none; stroke-width: 1; stroke-dasharray: none; stroke-linecap: butt; stroke-dashoffset: 0; stroke-linejoin: miter; stroke-miterlimit: 4; fill: rgb(71,68,109); fill-rule: nonzero; opacity: 1;"  paint-order="stroke"  transform=" translate(-652.598, -356.255)" d="M 664.314 360.256 L 640.882 360.256 L 640.882 352.25399999999996 L 664.314 352.25399999999996 z" stroke-linecap="round" />
</g>
		<g transform="matrix(0.4095754685631657 0 0 -0.4095754685631657 62.50035639425511 51.22965865033396)"  >
<path style="stroke: none; stroke-width: 1; stroke-dasharray: none; stroke-linecap: butt; stroke-dashoffset: 0; stroke-linejoin: miter; stroke-miterlimit: 4; fill: rgb(71,68,109); fill-rule: nonzero; opacity: 1;"  paint-order="stroke"  transform=" translate(-652.598, -374.91999999999996)" d="M 664.314 378.921 L 640.882 378.921 L 640.882 370.919 L 664.314 370.919 z" stroke-linecap="round" />
</g>
		<g transform="matrix(0.4095754685631657 0 0 -0.4095754685631657 31.546690357593945 74.1638370125284)"  >
<path style="stroke: none; stroke-width: 1; stroke-dasharray: none; stroke-linecap: butt; stroke-dashoffset: 0; stroke-linejoin: miter; stroke-miterlimit: 4; fill: rgb(71,68,109); fill-rule: nonzero; opacity: 1;"  paint-order="stroke"  transform=" translate(-577.023, -318.92499999999995)" d="M 588.739 322.926 L 565.307 322.926 L 565.307 314.924 L 588.739 314.924 z" stroke-linecap="round" />
</g>
		<g transform="matrix(0.4095754685631657 0 0 -0.4095754685631657 31.546690357593945 58.87438477106542)"  >
<path style="stroke: none; stroke-width: 1; stroke-dasharray: none; stroke-linecap: butt; stroke-dashoffset: 0; stroke-linejoin: miter; stroke-miterlimit: 4; fill: rgb(71,68,109); fill-rule: nonzero; opacity: 1;"  paint-order="stroke"  transform=" translate(-577.023, -356.255)" d="M 588.739 360.256 L 565.307 360.256 L 565.307 352.25399999999996 L 588.739 352.25399999999996 z" stroke-linecap="round" />
</g>
		<g transform="matrix(0.4095754685631657 0 0 -0.4095754685631657 47.023932951393135 28.22544288301515)"  >
<path style="stroke: none; stroke-width: 1; stroke-dasharray: none; stroke-linecap: butt; stroke-dashoffset: 0; stroke-linejoin: miter; stroke-miterlimit: 4; fill: rgb(71,68,109); fill-rule: nonzero; opacity: 1;"  paint-order="stroke"  transform=" translate(-614.8115, -431.086)" d="M 635.603 435.087 L 594.02 435.087 L 594.02 427.085 L 635.603 427.085 z" stroke-linecap="round" />
</g>
		<g transform="matrix(0.4095754685631657 0 0 -0.4095754685631657 31.546690357593945 66.51911089179691)"  >
<path style="stroke: none; stroke-width: 1; stroke-dasharray: none; stroke-linecap: butt; stroke-dashoffset: 0; stroke-linejoin: miter; stroke-miterlimit: 4; fill: rgb(71,68,109); fill-rule: nonzero; opacity: 1;"  paint-order="stroke"  transform=" translate(-577.023, -337.59000000000003)" d="M 588.739 341.591 L 565.307 341.591 L 565.307 333.589 L 588.739 333.589 z" stroke-linecap="round" />
</g>
		<g transform="matrix(0.4095754685631657 0 0 -0.4095754685631657 31.546690357593945 51.22965865033396)"  >
<path style="stroke: none; stroke-width: 1; stroke-dasharray: none; stroke-linecap: butt; stroke-dashoffset: 0; stroke-linejoin: miter; stroke-miterlimit: 4; fill: rgb(71,68,109); fill-rule: nonzero; opacity: 1;"  paint-order="stroke"  transform=" translate(-577.023, -374.91999999999996)" d="M 588.739 378.921 L 565.307 378.921 L 565.307 370.919 L 588.739 370.919 z" stroke-linecap="round" />
</g>
		<g transform="matrix(0.4095754685631657 0 0 -0.4095754685631657 31.546690357593945 43.58493252960241)"  >
<path style="stroke: none; stroke-width: 1; stroke-dasharray: none; stroke-linecap: butt; stroke-dashoffset: 0; stroke-linejoin: miter; stroke-miterlimit: 4; fill: rgb(71,68,109); fill-rule: nonzero; opacity: 1;"  paint-order="stroke"  transform=" translate(-577.023, -393.58500000000004)" d="M 588.739 397.586 L 565.307 397.586 L 565.307 389.584 L 588.739 389.584 z" stroke-linecap="round" />
</g>
		<g transform="matrix(0.4095754685631657 0 0 -0.4095754685631657 31.580480333750415 28.22544288301515)"  >
<path style="stroke: none; stroke-width: 1; stroke-dasharray: none; stroke-linecap: butt; stroke-dashoffset: 0; stroke-linejoin: miter; stroke-miterlimit: 4; fill: rgb(71,68,109); fill-rule: nonzero; opacity: 1;"  paint-order="stroke"  transform=" translate(-577.1055, -431.086)" d="M 588.739 435.087 L 565.472 435.087 L 565.472 427.085 L 588.739 427.085 z" stroke-linecap="round" />
</g>
		<g transform="matrix(0.4095754685631657 0 0 -0.4095754685631657 31.580480333750415 35.87016900374658)"  >
<path style="stroke: none; stroke-width: 1; stroke-dasharray: none; stroke-linecap: butt; stroke-dashoffset: 0; stroke-linejoin: miter; stroke-miterlimit: 4; fill: rgb(71,68,109); fill-rule: nonzero; opacity: 1;"  paint-order="stroke"  transform=" translate(-577.1055, -412.42100000000005)" d="M 588.739 416.422 L 565.472 416.422 L 565.472 408.42 L 588.739 408.42 z" stroke-linecap="round" />
</g>
		<g transform="matrix(0.4095754685631657 0 0 -0.4095754685631657 62.50035639425511 81.80856313325984)"  >
<path style="stroke: none; stroke-width: 1; stroke-dasharray: none; stroke-linecap: butt; stroke-dashoffset: 0; stroke-linejoin: miter; stroke-miterlimit: 4; fill: rgb(71,68,109); fill-rule: nonzero; opacity: 1;"  paint-order="stroke"  transform=" translate(-652.598, -300.26)" d="M 664.314 304.261 L 640.882 304.261 L 640.882 296.259 L 664.314 296.259 z" stroke-linecap="round" />
</g>
		<g transform="matrix(0.4095754685631657 0 0 -0.4095754685631657 62.534146370411634 28.22544288301515)"  >
<path style="stroke: none; stroke-width: 1; stroke-dasharray: none; stroke-linecap: butt; stroke-dashoffset: 0; stroke-linejoin: miter; stroke-miterlimit: 4; fill: rgb(71,68,109); fill-rule: nonzero; opacity: 1;"  paint-order="stroke"  transform=" translate(-652.6805, -431.086)" d="M 664.479 435.087 L 640.8820000000001 435.087 L 640.8820000000001 427.085 L 664.479 427.085 z" stroke-linecap="round" />
</g>
		<g transform="matrix(0.4095754685631657 0 0 -0.4095754685631657 62.534146370411634 35.87016900374658)"  >
<path style="stroke: none; stroke-width: 1; stroke-dasharray: none; stroke-linecap: butt; stroke-dashoffset: 0; stroke-linejoin: miter; stroke-miterlimit: 4; fill: rgb(71,68,109); fill-rule: nonzero; opacity: 1;"  paint-order="stroke"  transform=" translate(-652.6805, -412.42100000000005)" d="M 664.479 416.422 L 640.8820000000001 416.422 L 640.8820000000001 408.42 L 664.479 408.42 z" stroke-linecap="round" />
</g>
		<g transform="matrix(0.4095754685631657 0 0 -0.4095754685631657 -94.8296635571794 26.707146621051493)"  >
<path style="stroke: none; stroke-width: 1; stroke-dasharray: none; stroke-linecap: butt; stroke-dashoffset: 0; stroke-linejoin: miter; stroke-miterlimit: 4; fill: rgb(71,68,109); fill-rule: nonzero; opacity: 1;"  paint-order="stroke"  transform=" translate(-268.46849999999995, -434.793)" d="M 263.566 431.506 L 273.371 431.506 L 273.371 438.08 L 263.566 438.08 z" stroke-linecap="round" />
</g>
		<g transform="matrix(0.4095754685631657 0 0 -0.4095754685631657 -94.8296635571794 17.64201277534295)"  >
<path style="stroke: none; stroke-width: 1; stroke-dasharray: none; stroke-linecap: butt; stroke-dashoffset: 0; stroke-linejoin: miter; stroke-miterlimit: 4; fill: rgb(71,68,109); fill-rule: nonzero; opacity: 1;"  paint-order="stroke"  transform=" translate(-268.46849999999995, -456.92600000000004)" d="M 263.566 453.639 L 273.371 453.639 L 273.371 460.213 L 263.566 460.213 z" stroke-linecap="round" />
</g>
		<g transform="matrix(0.4095754685631657 0 0 -0.4095754685631657 -94.8296635571794 22.17478448593144)"  >
<path style="stroke: none; stroke-width: 1; stroke-dasharray: none; stroke-linecap: butt; stroke-dashoffset: 0; stroke-linejoin: miter; stroke-miterlimit: 4; fill: rgb(71,68,109); fill-rule: nonzero; opacity: 1;"  paint-order="stroke"  transform=" translate(-268.46849999999995, -445.85900000000004)" d="M 263.566 442.572 L 273.371 442.572 L 273.371 449.146 L 263.566 449.146 z" stroke-linecap="round" />
</g>
		<g transform="matrix(0.4095754685631657 0 0 -0.4095754685631657 -89.03785685622765 85.62867352854852)"  >
<path style="stroke: none; stroke-width: 1; stroke-dasharray: none; stroke-linecap: butt; stroke-dashoffset: 0; stroke-linejoin: miter; stroke-miterlimit: 4; fill: rgb(71,68,109); fill-rule: nonzero; opacity: 1;"  paint-order="stroke"  transform=" translate(-282.6095, -290.933)" d="M 277.707 287.646 L 287.512 287.646 L 287.512 294.22 L 277.707 294.22 z" stroke-linecap="round" />
</g>
		<g transform="matrix(0.4095754685631657 0 0 -0.4095754685631657 -89.03785685622765 81.0963113934285)"  >
<path style="stroke: none; stroke-width: 1; stroke-dasharray: none; stroke-linecap: butt; stroke-dashoffset: 0; stroke-linejoin: miter; stroke-miterlimit: 4; fill: rgb(71,68,109); fill-rule: nonzero; opacity: 1;"  paint-order="stroke"  transform=" translate(-282.6095, -301.999)" d="M 277.707 298.712 L 287.512 298.712 L 287.512 305.286 L 277.707 305.286 z" stroke-linecap="round" />
</g>
		<g transform="matrix(0.4095754685631657 0 0 -0.4095754685631657 -94.8296635571794 31.23950875617146)"  >
<path style="stroke: none; stroke-width: 1; stroke-dasharray: none; stroke-linecap: butt; stroke-dashoffset: 0; stroke-linejoin: miter; stroke-miterlimit: 4; fill: rgb(71,68,109); fill-rule: nonzero; opacity: 1;"  paint-order="stroke"  transform=" translate(-268.46849999999995, -423.727)" d="M 263.566 420.44 L 273.371 420.44 L 273.371 427.014 L 263.566 427.014 z" stroke-linecap="round" />
</g>
		<g transform="matrix(0.4095754685631657 0 0 -0.4095754685631657 -94.8296635571794 49.369366872120025)"  >
<path style="stroke: none; stroke-width: 1; stroke-dasharray: none; stroke-linecap: butt; stroke-dashoffset: 0; stroke-linejoin: miter; stroke-miterlimit: 4; fill: rgb(71,68,109); fill-rule: nonzero; opacity: 1;"  paint-order="stroke"  transform=" translate(-268.46849999999995, -379.462)" d="M 263.566 376.175 L 273.371 376.175 L 273.371 382.749 L 263.566 382.749 z" stroke-linecap="round" />
</g>
		<g transform="matrix(0.4095754685631657 0 0 -0.4095754685631657 -94.8296635571794 44.837004737)"  >
<path style="stroke: none; stroke-width: 1; stroke-dasharray: none; stroke-linecap: butt; stroke-dashoffset: 0; stroke-linejoin: miter; stroke-miterlimit: 4; fill: rgb(71,68,109); fill-rule: nonzero; opacity: 1;"  paint-order="stroke"  transform=" translate(-268.46849999999995, -390.528)" d="M 263.566 387.241 L 273.371 387.241 L 273.371 393.815 L 263.566 393.815 z" stroke-linecap="round" />
</g>
		<g transform="matrix(0.4095754685631657 0 0 -0.4095754685631657 -89.03785685622765 76.56394925830847)"  >
<path style="stroke: none; stroke-width: 1; stroke-dasharray: none; stroke-linecap: butt; stroke-dashoffset: 0; stroke-linejoin: miter; stroke-miterlimit: 4; fill: rgb(71,68,109); fill-rule: nonzero; opacity: 1;"  paint-order="stroke"  transform=" translate(-282.6095, -313.06500000000005)" d="M 277.707 309.778 L 287.512 309.778 L 287.512 316.35200000000003 L 277.707 316.35200000000003 z" stroke-linecap="round" />
</g>
		<g transform="matrix(0.4095754685631657 0 0 -0.4095754685631657 -94.8296635571794 40.30423302641145)"  >
<path style="stroke: none; stroke-width: 1; stroke-dasharray: none; stroke-linecap: butt; stroke-dashoffset: 0; stroke-linejoin: miter; stroke-miterlimit: 4; fill: rgb(71,68,109); fill-rule: nonzero; opacity: 1;"  paint-order="stroke"  transform=" translate(-268.46849999999995, -401.595)" d="M 263.566 398.308 L 273.371 398.308 L 273.371 404.882 L 263.566 404.882 z" stroke-linecap="round" />
</g>
		<g transform="matrix(0.4095754685631657 0 0 -0.4095754685631657 -94.8296635571794 35.77207567902579)"  >
<path style="stroke: none; stroke-width: 1; stroke-dasharray: none; stroke-linecap: butt; stroke-dashoffset: 0; stroke-linejoin: miter; stroke-miterlimit: 4; fill: rgb(71,68,109); fill-rule: nonzero; opacity: 1;"  paint-order="stroke"  transform=" translate(-268.46849999999995, -412.66049999999996)" d="M 263.566 409.373 L 273.371 409.373 L 273.371 415.948 L 263.566 415.948 z" stroke-linecap="round" />
</g>
		<g transform="matrix(0.4095754685631657 0 0 -0.4095754685631657 -89.03785685622765 49.369366872120025)"  >
<path style="stroke: none; stroke-width: 1; stroke-dasharray: none; stroke-linecap: butt; stroke-dashoffset: 0; stroke-linejoin: miter; stroke-miterlimit: 4; fill: rgb(71,68,109); fill-rule: nonzero; opacity: 1;"  paint-order="stroke"  transform=" translate(-282.6095, -379.462)" d="M 277.707 376.175 L 287.512 376.175 L 287.512 382.749 L 277.707 382.749 z" stroke-linecap="round" />
</g>
		<g transform="matrix(0.4095754685631657 0 0 -0.4095754685631657 -89.03785685622765 35.77207567902579)"  >
<path style="stroke: none; stroke-width: 1; stroke-dasharray: none; stroke-linecap: butt; stroke-dashoffset: 0; stroke-linejoin: miter; stroke-miterlimit: 4; fill: rgb(71,68,109); fill-rule: nonzero; opacity: 1;"  paint-order="stroke"  transform=" translate(-282.6095, -412.66049999999996)" d="M 277.707 409.373 L 287.512 409.373 L 287.512 415.948 L 277.707 415.948 z" stroke-linecap="round" />
</g>
		<g transform="matrix(0.4095754685631657 0 0 -0.4095754685631657 -89.03785685622765 31.23950875617146)"  >
<path style="stroke: none; stroke-width: 1; stroke-dasharray: none; stroke-linecap: butt; stroke-dashoffset: 0; stroke-linejoin: miter; stroke-miterlimit: 4; fill: rgb(71,68,109); fill-rule: nonzero; opacity: 1;"  paint-order="stroke"  transform=" translate(-282.6095, -423.727)" d="M 277.707 420.44 L 287.512 420.44 L 287.512 427.014 L 277.707 427.014 z" stroke-linecap="round" />
</g>
		<g transform="matrix(0.4095754685631657 0 0 -0.4095754685631657 -89.03785685622765 44.837004737)"  >
<path style="stroke: none; stroke-width: 1; stroke-dasharray: none; stroke-linecap: butt; stroke-dashoffset: 0; stroke-linejoin: miter; stroke-miterlimit: 4; fill: rgb(71,68,109); fill-rule: nonzero; opacity: 1;"  paint-order="stroke"  transform=" translate(-282.6095, -390.528)" d="M 277.707 387.241 L 287.512 387.241 L 287.512 393.815 L 277.707 393.815 z" stroke-linecap="round" />
</g>
		<g transform="matrix(0.4095754685631657 0 0 -0.4095754685631657 -89.03785685622765 22.17478448593144)"  >
<path style="stroke: none; stroke-width: 1; stroke-dasharray: none; stroke-linecap: butt; stroke-dashoffset: 0; stroke-linejoin: miter; stroke-miterlimit: 4; fill: rgb(71,68,109); fill-rule: nonzero; opacity: 1;"  paint-order="stroke"  transform=" translate(-282.6095, -445.85900000000004)" d="M 277.707 442.572 L 287.512 442.572 L 287.512 449.146 L 277.707 449.146 z" stroke-linecap="round" />
</g>
		<g transform="matrix(0.4095754685631657 0 0 -0.4095754685631657 -89.03785685622765 72.0315871231885)"  >
<path style="stroke: none; stroke-width: 1; stroke-dasharray: none; stroke-linecap: butt; stroke-dashoffset: 0; stroke-linejoin: miter; stroke-miterlimit: 4; fill: rgb(71,68,109); fill-rule: nonzero; opacity: 1;"  paint-order="stroke"  transform=" translate(-282.6095, -324.131)" d="M 277.707 320.844 L 287.512 320.844 L 287.512 327.418 L 277.707 327.418 z" stroke-linecap="round" />
</g>
		<g transform="matrix(0.4095754685631657 0 0 -0.4095754685631657 -89.03785685622765 26.707146621051493)"  >
<path style="stroke: none; stroke-width: 1; stroke-dasharray: none; stroke-linecap: butt; stroke-dashoffset: 0; stroke-linejoin: miter; stroke-miterlimit: 4; fill: rgb(71,68,109); fill-rule: nonzero; opacity: 1;"  paint-order="stroke"  transform=" translate(-282.6095, -434.793)" d="M 277.707 431.506 L 287.512 431.506 L 287.512 438.08 L 277.707 438.08 z" stroke-linecap="round" />
</g>
		<g transform="matrix(0.4095754685631657 0 0 -0.4095754685631657 -89.03785685622765 67.49922498806853)"  >
<path style="stroke: none; stroke-width: 1; stroke-dasharray: none; stroke-linecap: butt; stroke-dashoffset: 0; stroke-linejoin: miter; stroke-miterlimit: 4; fill: rgb(71,68,109); fill-rule: nonzero; opacity: 1;"  paint-order="stroke"  transform=" translate(-282.6095, -335.197)" d="M 277.707 331.91 L 287.512 331.91 L 287.512 338.48400000000004 L 277.707 338.48400000000004 z" stroke-linecap="round" />
</g>
		<g transform="matrix(0.4095754685631657 0 0 -0.4095754685631657 -94.8296635571794 53.901729007239936)"  >
<path style="stroke: none; stroke-width: 1; stroke-dasharray: none; stroke-linecap: butt; stroke-dashoffset: 0; stroke-linejoin: miter; stroke-miterlimit: 4; fill: rgb(71,68,109); fill-rule: nonzero; opacity: 1;"  paint-order="stroke"  transform=" translate(-268.46849999999995, -368.39599999999996)" d="M 263.566 365.109 L 273.371 365.109 L 273.371 371.683 L 263.566 371.683 z" stroke-linecap="round" />
</g>
		<g transform="matrix(0.4095754685631657 0 0 -0.4095754685631657 -89.03785685622765 62.96645327747996)"  >
<path style="stroke: none; stroke-width: 1; stroke-dasharray: none; stroke-linecap: butt; stroke-dashoffset: 0; stroke-linejoin: miter; stroke-miterlimit: 4; fill: rgb(71,68,109); fill-rule: nonzero; opacity: 1;"  paint-order="stroke"  transform=" translate(-282.6095, -346.264)" d="M 277.707 342.977 L 287.512 342.977 L 287.512 349.551 L 277.707 349.551 z" stroke-linecap="round" />
</g>
		<g transform="matrix(0.4095754685631657 0 0 -0.4095754685631657 -89.03785685622765 53.901729007239936)"  >
<path style="stroke: none; stroke-width: 1; stroke-dasharray: none; stroke-linecap: butt; stroke-dashoffset: 0; stroke-linejoin: miter; stroke-miterlimit: 4; fill: rgb(71,68,109); fill-rule: nonzero; opacity: 1;"  paint-order="stroke"  transform=" translate(-282.6095, -368.39599999999996)" d="M 277.707 365.109 L 287.512 365.109 L 287.512 371.683 L 277.707 371.683 z" stroke-linecap="round" />
</g>
		<g transform="matrix(0.4095754685631657 0 0 -0.4095754685631657 -89.03785685622765 58.43409114235993)"  >
<path style="stroke: none; stroke-width: 1; stroke-dasharray: none; stroke-linecap: butt; stroke-dashoffset: 0; stroke-linejoin: miter; stroke-miterlimit: 4; fill: rgb(71,68,109); fill-rule: nonzero; opacity: 1;"  paint-order="stroke"  transform=" translate(-282.6095, -357.33000000000004)" d="M 277.707 354.043 L 287.512 354.043 L 287.512 360.617 L 277.707 360.617 z" stroke-linecap="round" />
</g>
		<g transform="matrix(0.4095754685631657 0 0 -0.4095754685631657 -94.8296635571794 81.0963113934285)"  >
<path style="stroke: none; stroke-width: 1; stroke-dasharray: none; stroke-linecap: butt; stroke-dashoffset: 0; stroke-linejoin: miter; stroke-miterlimit: 4; fill: rgb(71,68,109); fill-rule: nonzero; opacity: 1;"  paint-order="stroke"  transform=" translate(-268.46849999999995, -301.999)" d="M 263.566 298.712 L 273.371 298.712 L 273.371 305.286 L 263.566 305.286 z" stroke-linecap="round" />
</g>
		<g transform="matrix(0.4095754685631657 0 0 -0.4095754685631657 -65.87063005242078 49.369366872120025)"  >
<path style="stroke: none; stroke-width: 1; stroke-dasharray: none; stroke-linecap: butt; stroke-dashoffset: 0; stroke-linejoin: miter; stroke-miterlimit: 4; fill: rgb(71,68,109); fill-rule: nonzero; opacity: 1;"  paint-order="stroke"  transform=" translate(-339.1735, -379.462)" d="M 344.076 382.749 L 334.271 382.749 L 334.271 376.175 L 344.076 376.175 z" stroke-linecap="round" />
</g>
		<g transform="matrix(0.4095754685631657 0 0 -0.4095754685631657 -65.87063005242078 44.837004737)"  >
<path style="stroke: none; stroke-width: 1; stroke-dasharray: none; stroke-linecap: butt; stroke-dashoffset: 0; stroke-linejoin: miter; stroke-miterlimit: 4; fill: rgb(71,68,109); fill-rule: nonzero; opacity: 1;"  paint-order="stroke"  transform=" translate(-339.1735, -390.528)" d="M 344.076 393.815 L 334.271 393.815 L 334.271 387.241 L 344.076 387.241 z" stroke-linecap="round" />
</g>
		<g transform="matrix(0.4095754685631657 0 0 -0.4095754685631657 -65.87063005242078 40.30423302641145)"  >
<path style="stroke: none; stroke-width: 1; stroke-dasharray: none; stroke-linecap: butt; stroke-dashoffset: 0; stroke-linejoin: miter; stroke-miterlimit: 4; fill: rgb(71,68,109); fill-rule: nonzero; opacity: 1;"  paint-order="stroke"  transform=" translate(-339.1735, -401.595)" d="M 344.076 404.882 L 334.271 404.882 L 334.271 398.308 L 344.076 398.308 z" stroke-linecap="round" />
</g>
		<g transform="matrix(0.4095754685631657 0 0 -0.4095754685631657 -65.87063005242078 53.90131943177144)"  >
<path style="stroke: none; stroke-width: 1; stroke-dasharray: none; stroke-linecap: butt; stroke-dashoffset: 0; stroke-linejoin: miter; stroke-miterlimit: 4; fill: rgb(71,68,109); fill-rule: nonzero; opacity: 1;"  paint-order="stroke"  transform=" translate(-339.1735, -368.39700000000005)" d="M 344.076 371.684 L 334.271 371.684 L 334.271 365.11 L 344.076 365.11 z" stroke-linecap="round" />
</g>
		<g transform="matrix(0.4095754685631657 0 0 -0.4095754685631657 -65.87063005242078 22.17478448593144)"  >
<path style="stroke: none; stroke-width: 1; stroke-dasharray: none; stroke-linecap: butt; stroke-dashoffset: 0; stroke-linejoin: miter; stroke-miterlimit: 4; fill: rgb(71,68,109); fill-rule: nonzero; opacity: 1;"  paint-order="stroke"  transform=" translate(-339.1735, -445.85900000000004)" d="M 344.076 449.146 L 334.271 449.146 L 334.271 442.572 L 344.076 442.572 z" stroke-linecap="round" />
</g>
		<g transform="matrix(0.4095754685631657 0 0 -0.4095754685631657 -65.87063005242078 17.64201277534295)"  >
<path style="stroke: none; stroke-width: 1; stroke-dasharray: none; stroke-linecap: butt; stroke-dashoffset: 0; stroke-linejoin: miter; stroke-miterlimit: 4; fill: rgb(71,68,109); fill-rule: nonzero; opacity: 1;"  paint-order="stroke"  transform=" translate(-339.1735, -456.92600000000004)" d="M 344.076 460.213 L 334.271 460.213 L 334.271 453.639 L 344.076 453.639 z" stroke-linecap="round" />
</g>
		<g transform="matrix(0.4095754685631657 0 0 -0.4095754685631657 -65.87063005242078 35.77207567902579)"  >
<path style="stroke: none; stroke-width: 1; stroke-dasharray: none; stroke-linecap: butt; stroke-dashoffset: 0; stroke-linejoin: miter; stroke-miterlimit: 4; fill: rgb(71,68,109); fill-rule: nonzero; opacity: 1;"  paint-order="stroke"  transform=" translate(-339.1735, -412.66049999999996)" d="M 344.076 415.948 L 334.271 415.948 L 334.271 409.373 L 344.076 409.373 z" stroke-linecap="round" />
</g>
		<g transform="matrix(0.4095754685631657 0 0 -0.4095754685631657 -65.87063005242078 31.239099180702908)"  >
<path style="stroke: none; stroke-width: 1; stroke-dasharray: none; stroke-linecap: butt; stroke-dashoffset: 0; stroke-linejoin: miter; stroke-miterlimit: 4; fill: rgb(71,68,109); fill-rule: nonzero; opacity: 1;"  paint-order="stroke"  transform=" translate(-339.1735, -423.72799999999995)" d="M 344.076 427.015 L 334.271 427.015 L 334.271 420.441 L 344.076 420.441 z" stroke-linecap="round" />
</g>
		<g transform="matrix(0.4095754685631657 0 0 -0.4095754685631657 -65.87063005242078 26.707146621051493)"  >
<path style="stroke: none; stroke-width: 1; stroke-dasharray: none; stroke-linecap: butt; stroke-dashoffset: 0; stroke-linejoin: miter; stroke-miterlimit: 4; fill: rgb(71,68,109); fill-rule: nonzero; opacity: 1;"  paint-order="stroke"  transform=" translate(-339.1735, -434.793)" d="M 344.076 438.08 L 334.271 438.08 L 334.271 431.506 L 344.076 431.506 z" stroke-linecap="round" />
</g>
		<g transform="matrix(0.4095754685631657 0 0 -0.4095754685631657 -89.03785685622765 17.64201277534295)"  >
<path style="stroke: none; stroke-width: 1; stroke-dasharray: none; stroke-linecap: butt; stroke-dashoffset: 0; stroke-linejoin: miter; stroke-miterlimit: 4; fill: rgb(71,68,109); fill-rule: nonzero; opacity: 1;"  paint-order="stroke"  transform=" translate(-282.6095, -456.92600000000004)" d="M 277.707 453.639 L 287.512 453.639 L 287.512 460.213 L 277.707 460.213 z" stroke-linecap="round" />
</g>
		<g transform="matrix(0.4095754685631657 0 0 -0.4095754685631657 -94.8296635571794 72.0315871231885)"  >
<path style="stroke: none; stroke-width: 1; stroke-dasharray: none; stroke-linecap: butt; stroke-dashoffset: 0; stroke-linejoin: miter; stroke-miterlimit: 4; fill: rgb(71,68,109); fill-rule: nonzero; opacity: 1;"  paint-order="stroke"  transform=" translate(-268.46849999999995, -324.131)" d="M 263.566 320.844 L 273.371 320.844 L 273.371 327.418 L 263.566 327.418 z" stroke-linecap="round" />
</g>
		<g transform="matrix(0.4095754685631657 0 0 -0.4095754685631657 -94.8296635571794 76.56394925830847)"  >
<path style="stroke: none; stroke-width: 1; stroke-dasharray: none; stroke-linecap: butt; stroke-dashoffset: 0; stroke-linejoin: miter; stroke-miterlimit: 4; fill: rgb(71,68,109); fill-rule: nonzero; opacity: 1;"  paint-order="stroke"  transform=" translate(-268.46849999999995, -313.06500000000005)" d="M 263.566 309.778 L 273.371 309.778 L 273.371 316.35200000000003 L 263.566 316.35200000000003 z" stroke-linecap="round" />
</g>
		<g transform="matrix(0.4095754685631657 0 0 -0.4095754685631657 -94.8296635571794 67.49922498806853)"  >
<path style="stroke: none; stroke-width: 1; stroke-dasharray: none; stroke-linecap: butt; stroke-dashoffset: 0; stroke-linejoin: miter; stroke-miterlimit: 4; fill: rgb(71,68,109); fill-rule: nonzero; opacity: 1;"  paint-order="stroke"  transform=" translate(-268.46849999999995, -335.197)" d="M 263.566 331.91 L 273.371 331.91 L 273.371 338.48400000000004 L 263.566 338.48400000000004 z" stroke-linecap="round" />
</g>
		<g transform="matrix(0.4095754685631657 0 0 -0.4095754685631657 -94.8296635571794 62.96645327747996)"  >
<path style="stroke: none; stroke-width: 1; stroke-dasharray: none; stroke-linecap: butt; stroke-dashoffset: 0; stroke-linejoin: miter; stroke-miterlimit: 4; fill: rgb(71,68,109); fill-rule: nonzero; opacity: 1;"  paint-order="stroke"  transform=" translate(-268.46849999999995, -346.264)" d="M 263.566 342.977 L 273.371 342.977 L 273.371 349.551 L 263.566 349.551 z" stroke-linecap="round" />
</g>
		<g transform="matrix(0.4095754685631657 0 0 -0.4095754685631657 -94.8296635571794 58.43409114235993)"  >
<path style="stroke: none; stroke-width: 1; stroke-dasharray: none; stroke-linecap: butt; stroke-dashoffset: 0; stroke-linejoin: miter; stroke-miterlimit: 4; fill: rgb(71,68,109); fill-rule: nonzero; opacity: 1;"  paint-order="stroke"  transform=" translate(-268.46849999999995, -357.33000000000004)" d="M 263.566 354.043 L 273.371 354.043 L 273.371 360.617 L 263.566 360.617 z" stroke-linecap="round" />
</g>
		<g transform="matrix(0.4095754685631657 0 0 -0.4095754685631657 -94.8296635571794 85.62867352854852)"  >
<path style="stroke: none; stroke-width: 1; stroke-dasharray: none; stroke-linecap: butt; stroke-dashoffset: 0; stroke-linejoin: miter; stroke-miterlimit: 4; fill: rgb(71,68,109); fill-rule: nonzero; opacity: 1;"  paint-order="stroke"  transform=" translate(-268.46849999999995, -290.933)" d="M 263.566 287.646 L 273.371 287.646 L 273.371 294.22 L 263.566 294.22 z" stroke-linecap="round" />
</g>
		<g transform="matrix(0.4095754685631657 0 0 -0.4095754685631657 -89.03785685622765 40.30423302641145)"  >
<path style="stroke: none; stroke-width: 1; stroke-dasharray: none; stroke-linecap: butt; stroke-dashoffset: 0; stroke-linejoin: miter; stroke-miterlimit: 4; fill: rgb(71,68,109); fill-rule: nonzero; opacity: 1;"  paint-order="stroke"  transform=" translate(-282.6095, -401.595)" d="M 277.707 398.308 L 287.512 398.308 L 287.512 404.882 L 277.707 404.882 z" stroke-linecap="round" />
</g>
		<g transform="matrix(0.4095754685631657 0 0 -0.4095754685631657 -71.66223196563823 85.62867352854852)"  >
<path style="stroke: none; stroke-width: 1; stroke-dasharray: none; stroke-linecap: butt; stroke-dashoffset: 0; stroke-linejoin: miter; stroke-miterlimit: 4; fill: rgb(71,68,109); fill-rule: nonzero; opacity: 1;"  paint-order="stroke"  transform=" translate(-325.033, -290.933)" d="M 320.13 287.646 L 329.936 287.646 L 329.936 294.22 L 320.13 294.22 z" stroke-linecap="round" />
</g>
		<g transform="matrix(0.4095754685631657 0 0 -0.4095754685631657 -71.66223196563823 81.0963113934285)"  >
<path style="stroke: none; stroke-width: 1; stroke-dasharray: none; stroke-linecap: butt; stroke-dashoffset: 0; stroke-linejoin: miter; stroke-miterlimit: 4; fill: rgb(71,68,109); fill-rule: nonzero; opacity: 1;"  paint-order="stroke"  transform=" translate(-325.033, -301.999)" d="M 320.13 298.712 L 329.936 298.712 L 329.936 305.286 L 320.13 305.286 z" stroke-linecap="round" />
</g>
		<g transform="matrix(0.4095754685631657 0 0 -0.4095754685631657 -71.66223196563823 67.49922498806853)"  >
<path style="stroke: none; stroke-width: 1; stroke-dasharray: none; stroke-linecap: butt; stroke-dashoffset: 0; stroke-linejoin: miter; stroke-miterlimit: 4; fill: rgb(71,68,109); fill-rule: nonzero; opacity: 1;"  paint-order="stroke"  transform=" translate(-325.033, -335.197)" d="M 320.13 331.91 L 329.936 331.91 L 329.936 338.48400000000004 L 320.13 338.48400000000004 z" stroke-linecap="round" />
</g>
		<g transform="matrix(0.4095754685631657 0 0 -0.4095754685631657 -71.66223196563823 72.0315871231885)"  >
<path style="stroke: none; stroke-width: 1; stroke-dasharray: none; stroke-linecap: butt; stroke-dashoffset: 0; stroke-linejoin: miter; stroke-miterlimit: 4; fill: rgb(71,68,109); fill-rule: nonzero; opacity: 1;"  paint-order="stroke"  transform=" translate(-325.033, -324.131)" d="M 320.13 320.844 L 329.936 320.844 L 329.936 327.418 L 320.13 327.418 z" stroke-linecap="round" />
</g>
		<g transform="matrix(0.4095754685631657 0 0 -0.4095754685631657 -71.66223196563823 76.56394925830847)"  >
<path style="stroke: none; stroke-width: 1; stroke-dasharray: none; stroke-linecap: butt; stroke-dashoffset: 0; stroke-linejoin: miter; stroke-miterlimit: 4; fill: rgb(71,68,109); fill-rule: nonzero; opacity: 1;"  paint-order="stroke"  transform=" translate(-325.033, -313.06500000000005)" d="M 320.13 309.778 L 329.936 309.778 L 329.936 316.35200000000003 L 320.13 316.35200000000003 z" stroke-linecap="round" />
</g>
		<g transform="matrix(0.4095754685631657 0 0 -0.4095754685631657 -77.45424345432423 22.17478448593144)"  >
<path style="stroke: none; stroke-width: 1; stroke-dasharray: none; stroke-linecap: butt; stroke-dashoffset: 0; stroke-linejoin: miter; stroke-miterlimit: 4; fill: rgb(71,68,109); fill-rule: nonzero; opacity: 1;"  paint-order="stroke"  transform=" translate(-310.89149999999995, -445.85900000000004)" d="M 305.989 442.572 L 315.794 442.572 L 315.794 449.146 L 305.989 449.146 z" stroke-linecap="round" />
</g>
		<g transform="matrix(0.4095754685631657 0 0 -0.4095754685631657 -77.45424345432423 17.64201277534295)"  >
<path style="stroke: none; stroke-width: 1; stroke-dasharray: none; stroke-linecap: butt; stroke-dashoffset: 0; stroke-linejoin: miter; stroke-miterlimit: 4; fill: rgb(71,68,109); fill-rule: nonzero; opacity: 1;"  paint-order="stroke"  transform=" translate(-310.89149999999995, -456.92600000000004)" d="M 305.989 453.639 L 315.794 453.639 L 315.794 460.213 L 305.989 460.213 z" stroke-linecap="round" />
</g>
		<g transform="matrix(0.4095754685631657 0 0 -0.4095754685631657 -77.45424345432423 44.837004737)"  >
<path style="stroke: none; stroke-width: 1; stroke-dasharray: none; stroke-linecap: butt; stroke-dashoffset: 0; stroke-linejoin: miter; stroke-miterlimit: 4; fill: rgb(71,68,109); fill-rule: nonzero; opacity: 1;"  paint-order="stroke"  transform=" translate(-310.89149999999995, -390.528)" d="M 305.989 387.241 L 315.794 387.241 L 315.794 393.815 L 305.989 393.815 z" stroke-linecap="round" />
</g>
		<g transform="matrix(0.4095754685631657 0 0 -0.4095754685631657 -77.45424345432423 26.707146621051493)"  >
<path style="stroke: none; stroke-width: 1; stroke-dasharray: none; stroke-linecap: butt; stroke-dashoffset: 0; stroke-linejoin: miter; stroke-miterlimit: 4; fill: rgb(71,68,109); fill-rule: nonzero; opacity: 1;"  paint-order="stroke"  transform=" translate(-310.89149999999995, -434.793)" d="M 305.989 431.506 L 315.794 431.506 L 315.794 438.08 L 305.989 438.08 z" stroke-linecap="round" />
</g>
		<g transform="matrix(0.4095754685631657 0 0 -0.4095754685631657 -77.45424345432423 49.369366872120025)"  >
<path style="stroke: none; stroke-width: 1; stroke-dasharray: none; stroke-linecap: butt; stroke-dashoffset: 0; stroke-linejoin: miter; stroke-miterlimit: 4; fill: rgb(71,68,109); fill-rule: nonzero; opacity: 1;"  paint-order="stroke"  transform=" translate(-310.89149999999995, -379.462)" d="M 305.989 376.175 L 315.794 376.175 L 315.794 382.749 L 305.989 382.749 z" stroke-linecap="round" />
</g>
		<g transform="matrix(0.4095754685631657 0 0 -0.4095754685631657 -77.45424345432423 31.23950875617146)"  >
<path style="stroke: none; stroke-width: 1; stroke-dasharray: none; stroke-linecap: butt; stroke-dashoffset: 0; stroke-linejoin: miter; stroke-miterlimit: 4; fill: rgb(71,68,109); fill-rule: nonzero; opacity: 1;"  paint-order="stroke"  transform=" translate(-310.89149999999995, -423.727)" d="M 305.989 420.44 L 315.794 420.44 L 315.794 427.014 L 305.989 427.014 z" stroke-linecap="round" />
</g>
		<g transform="matrix(0.4095754685631657 0 0 -0.4095754685631657 -77.45424345432423 35.77207567902579)"  >
<path style="stroke: none; stroke-width: 1; stroke-dasharray: none; stroke-linecap: butt; stroke-dashoffset: 0; stroke-linejoin: miter; stroke-miterlimit: 4; fill: rgb(71,68,109); fill-rule: nonzero; opacity: 1;"  paint-order="stroke"  transform=" translate(-310.89149999999995, -412.66049999999996)" d="M 305.989 409.373 L 315.794 409.373 L 315.794 415.948 L 305.989 415.948 z" stroke-linecap="round" />
</g>
		<g transform="matrix(0.4095754685631657 0 0 -0.4095754685631657 -77.45424345432423 40.30423302641145)"  >
<path style="stroke: none; stroke-width: 1; stroke-dasharray: none; stroke-linecap: butt; stroke-dashoffset: 0; stroke-linejoin: miter; stroke-miterlimit: 4; fill: rgb(71,68,109); fill-rule: nonzero; opacity: 1;"  paint-order="stroke"  transform=" translate(-310.89149999999995, -401.595)" d="M 305.989 398.308 L 315.794 398.308 L 315.794 404.882 L 305.989 404.882 z" stroke-linecap="round" />
</g>
		<g transform="matrix(0.4095754685631657 0 0 -0.4095754685631657 -71.66223196563823 26.707146621051493)"  >
<path style="stroke: none; stroke-width: 1; stroke-dasharray: none; stroke-linecap: butt; stroke-dashoffset: 0; stroke-linejoin: miter; stroke-miterlimit: 4; fill: rgb(71,68,109); fill-rule: nonzero; opacity: 1;"  paint-order="stroke"  transform=" translate(-325.033, -434.793)" d="M 320.13 431.506 L 329.936 431.506 L 329.936 438.08 L 320.13 438.08 z" stroke-linecap="round" />
</g>
		<g transform="matrix(0.4095754685631657 0 0 -0.4095754685631657 -71.66223196563823 35.77207567902579)"  >
<path style="stroke: none; stroke-width: 1; stroke-dasharray: none; stroke-linecap: butt; stroke-dashoffset: 0; stroke-linejoin: miter; stroke-miterlimit: 4; fill: rgb(71,68,109); fill-rule: nonzero; opacity: 1;"  paint-order="stroke"  transform=" translate(-325.033, -412.66049999999996)" d="M 320.13 409.373 L 329.936 409.373 L 329.936 415.948 L 320.13 415.948 z" stroke-linecap="round" />
</g>
		<g transform="matrix(0.4095754685631657 0 0 -0.4095754685631657 -71.66223196563823 31.23950875617146)"  >
<path style="stroke: none; stroke-width: 1; stroke-dasharray: none; stroke-linecap: butt; stroke-dashoffset: 0; stroke-linejoin: miter; stroke-miterlimit: 4; fill: rgb(71,68,109); fill-rule: nonzero; opacity: 1;"  paint-order="stroke"  transform=" translate(-325.033, -423.727)" d="M 320.13 420.44 L 329.936 420.44 L 329.936 427.014 L 320.13 427.014 z" stroke-linecap="round" />
</g>
		<g transform="matrix(0.4095754685631657 0 0 -0.4095754685631657 -71.66223196563823 22.17478448593144)"  >
<path style="stroke: none; stroke-width: 1; stroke-dasharray: none; stroke-linecap: butt; stroke-dashoffset: 0; stroke-linejoin: miter; stroke-miterlimit: 4; fill: rgb(71,68,109); fill-rule: nonzero; opacity: 1;"  paint-order="stroke"  transform=" translate(-325.033, -445.85900000000004)" d="M 320.13 442.572 L 329.936 442.572 L 329.936 449.146 L 320.13 449.146 z" stroke-linecap="round" />
</g>
		<g transform="matrix(0.4095754685631657 0 0 -0.4095754685631657 -71.66223196563823 17.64201277534295)"  >
<path style="stroke: none; stroke-width: 1; stroke-dasharray: none; stroke-linecap: butt; stroke-dashoffset: 0; stroke-linejoin: miter; stroke-miterlimit: 4; fill: rgb(71,68,109); fill-rule: nonzero; opacity: 1;"  paint-order="stroke"  transform=" translate(-325.033, -456.92600000000004)" d="M 320.13 453.639 L 329.936 453.639 L 329.936 460.213 L 320.13 460.213 z" stroke-linecap="round" />
</g>
		<g transform="matrix(0.4095754685631657 0 0 -0.4095754685631657 -71.66223196563823 40.30423302641145)"  >
<path style="stroke: none; stroke-width: 1; stroke-dasharray: none; stroke-linecap: butt; stroke-dashoffset: 0; stroke-linejoin: miter; stroke-miterlimit: 4; fill: rgb(71,68,109); fill-rule: nonzero; opacity: 1;"  paint-order="stroke"  transform=" translate(-325.033, -401.595)" d="M 320.13 398.308 L 329.936 398.308 L 329.936 404.882 L 320.13 404.882 z" stroke-linecap="round" />
</g>
		<g transform="matrix(0.4095754685631657 0 0 -0.4095754685631657 -71.66223196563823 58.43409114235993)"  >
<path style="stroke: none; stroke-width: 1; stroke-dasharray: none; stroke-linecap: butt; stroke-dashoffset: 0; stroke-linejoin: miter; stroke-miterlimit: 4; fill: rgb(71,68,109); fill-rule: nonzero; opacity: 1;"  paint-order="stroke"  transform=" translate(-325.033, -357.33000000000004)" d="M 320.13 354.043 L 329.936 354.043 L 329.936 360.617 L 320.13 360.617 z" stroke-linecap="round" />
</g>
		<g transform="matrix(0.4095754685631657 0 0 -0.4095754685631657 -71.66223196563823 53.901729007239936)"  >
<path style="stroke: none; stroke-width: 1; stroke-dasharray: none; stroke-linecap: butt; stroke-dashoffset: 0; stroke-linejoin: miter; stroke-miterlimit: 4; fill: rgb(71,68,109); fill-rule: nonzero; opacity: 1;"  paint-order="stroke"  transform=" translate(-325.033, -368.39599999999996)" d="M 320.13 365.109 L 329.936 365.109 L 329.936 371.683 L 320.13 371.683 z" stroke-linecap="round" />
</g>
		<g transform="matrix(0.4095754685631657 0 0 -0.4095754685631657 -71.66223196563823 44.837004737)"  >
<path style="stroke: none; stroke-width: 1; stroke-dasharray: none; stroke-linecap: butt; stroke-dashoffset: 0; stroke-linejoin: miter; stroke-miterlimit: 4; fill: rgb(71,68,109); fill-rule: nonzero; opacity: 1;"  paint-order="stroke"  transform=" translate(-325.033, -390.528)" d="M 320.13 387.241 L 329.936 387.241 L 329.936 393.815 L 320.13 393.815 z" stroke-linecap="round" />
</g>
		<g transform="matrix(0.4095754685631657 0 0 -0.4095754685631657 -71.66223196563823 62.96645327747996)"  >
<path style="stroke: none; stroke-width: 1; stroke-dasharray: none; stroke-linecap: butt; stroke-dashoffset: 0; stroke-linejoin: miter; stroke-miterlimit: 4; fill: rgb(71,68,109); fill-rule: nonzero; opacity: 1;"  paint-order="stroke"  transform=" translate(-325.033, -346.264)" d="M 320.13 342.977 L 329.936 342.977 L 329.936 349.551 L 320.13 349.551 z" stroke-linecap="round" />
</g>
		<g transform="matrix(0.4095754685631657 0 0 -0.4095754685631657 -71.66223196563823 49.369366872120025)"  >
<path style="stroke: none; stroke-width: 1; stroke-dasharray: none; stroke-linecap: butt; stroke-dashoffset: 0; stroke-linejoin: miter; stroke-miterlimit: 4; fill: rgb(71,68,109); fill-rule: nonzero; opacity: 1;"  paint-order="stroke"  transform=" translate(-325.033, -379.462)" d="M 320.13 376.175 L 329.936 376.175 L 329.936 382.749 L 320.13 382.749 z" stroke-linecap="round" />
</g>
		<g transform="matrix(0.4095754685631657 0 0 -0.4095754685631657 -77.45424345432423 53.901729007239936)"  >
<path style="stroke: none; stroke-width: 1; stroke-dasharray: none; stroke-linecap: butt; stroke-dashoffset: 0; stroke-linejoin: miter; stroke-miterlimit: 4; fill: rgb(71,68,109); fill-rule: nonzero; opacity: 1;"  paint-order="stroke"  transform=" translate(-310.89149999999995, -368.39599999999996)" d="M 305.989 365.109 L 315.794 365.109 L 315.794 371.683 L 305.989 371.683 z" stroke-linecap="round" />
</g>
		<g transform="matrix(0.4095754685631657 0 0 -0.4095754685631657 -83.24605015527595 53.901729007239936)"  >
<path style="stroke: none; stroke-width: 1; stroke-dasharray: none; stroke-linecap: butt; stroke-dashoffset: 0; stroke-linejoin: miter; stroke-miterlimit: 4; fill: rgb(71,68,109); fill-rule: nonzero; opacity: 1;"  paint-order="stroke"  transform=" translate(-296.7505, -368.39599999999996)" d="M 291.848 365.109 L 301.653 365.109 L 301.653 371.683 L 291.848 371.683 z" stroke-linecap="round" />
</g>
		<g transform="matrix(0.4095754685631657 0 0 -0.4095754685631657 -83.24605015527595 49.369366872120025)"  >
<path style="stroke: none; stroke-width: 1; stroke-dasharray: none; stroke-linecap: butt; stroke-dashoffset: 0; stroke-linejoin: miter; stroke-miterlimit: 4; fill: rgb(71,68,109); fill-rule: nonzero; opacity: 1;"  paint-order="stroke"  transform=" translate(-296.7505, -379.462)" d="M 291.848 376.175 L 301.653 376.175 L 301.653 382.749 L 291.848 382.749 z" stroke-linecap="round" />
</g>
		<g transform="matrix(0.4095754685631657 0 0 -0.4095754685631657 -83.24605015527595 58.43409114235993)"  >
<path style="stroke: none; stroke-width: 1; stroke-dasharray: none; stroke-linecap: butt; stroke-dashoffset: 0; stroke-linejoin: miter; stroke-miterlimit: 4; fill: rgb(71,68,109); fill-rule: nonzero; opacity: 1;"  paint-order="stroke"  transform=" translate(-296.7505, -357.33000000000004)" d="M 291.848 354.043 L 301.653 354.043 L 301.653 360.617 L 291.848 360.617 z" stroke-linecap="round" />
</g>
		<g transform="matrix(0.4095754685631657 0 0 -0.4095754685631657 -83.24605015527595 40.30423302641145)"  >
<path style="stroke: none; stroke-width: 1; stroke-dasharray: none; stroke-linecap: butt; stroke-dashoffset: 0; stroke-linejoin: miter; stroke-miterlimit: 4; fill: rgb(71,68,109); fill-rule: nonzero; opacity: 1;"  paint-order="stroke"  transform=" translate(-296.7505, -401.595)" d="M 291.848 398.308 L 301.653 398.308 L 301.653 404.882 L 291.848 404.882 z" stroke-linecap="round" />
</g>
		<g transform="matrix(0.4095754685631657 0 0 -0.4095754685631657 -83.24605015527595 44.837004737)"  >
<path style="stroke: none; stroke-width: 1; stroke-dasharray: none; stroke-linecap: butt; stroke-dashoffset: 0; stroke-linejoin: miter; stroke-miterlimit: 4; fill: rgb(71,68,109); fill-rule: nonzero; opacity: 1;"  paint-order="stroke"  transform=" translate(-296.7505, -390.528)" d="M 291.848 387.241 L 301.653 387.241 L 301.653 393.815 L 291.848 393.815 z" stroke-linecap="round" />
</g>
		<g transform="matrix(0.4095754685631657 0 0 -0.4095754685631657 -83.24605015527595 76.56394925830847)"  >
<path style="stroke: none; stroke-width: 1; stroke-dasharray: none; stroke-linecap: butt; stroke-dashoffset: 0; stroke-linejoin: miter; stroke-miterlimit: 4; fill: rgb(71,68,109); fill-rule: nonzero; opacity: 1;"  paint-order="stroke"  transform=" translate(-296.7505, -313.06500000000005)" d="M 291.848 309.778 L 301.653 309.778 L 301.653 316.35200000000003 L 291.848 316.35200000000003 z" stroke-linecap="round" />
</g>
		<g transform="matrix(0.4095754685631657 0 0 -0.4095754685631657 -83.24605015527595 35.77207567902579)"  >
<path style="stroke: none; stroke-width: 1; stroke-dasharray: none; stroke-linecap: butt; stroke-dashoffset: 0; stroke-linejoin: miter; stroke-miterlimit: 4; fill: rgb(71,68,109); fill-rule: nonzero; opacity: 1;"  paint-order="stroke"  transform=" translate(-296.7505, -412.66049999999996)" d="M 291.848 409.373 L 301.653 409.373 L 301.653 415.948 L 291.848 415.948 z" stroke-linecap="round" />
</g>
		<g transform="matrix(0.4095754685631657 0 0 -0.4095754685631657 -83.24605015527595 62.96645327747996)"  >
<path style="stroke: none; stroke-width: 1; stroke-dasharray: none; stroke-linecap: butt; stroke-dashoffset: 0; stroke-linejoin: miter; stroke-miterlimit: 4; fill: rgb(71,68,109); fill-rule: nonzero; opacity: 1;"  paint-order="stroke"  transform=" translate(-296.7505, -346.264)" d="M 291.848 342.977 L 301.653 342.977 L 301.653 349.551 L 291.848 349.551 z" stroke-linecap="round" />
</g>
		<g transform="matrix(0.4095754685631657 0 0 -0.4095754685631657 -83.24605015527595 81.0963113934285)"  >
<path style="stroke: none; stroke-width: 1; stroke-dasharray: none; stroke-linecap: butt; stroke-dashoffset: 0; stroke-linejoin: miter; stroke-miterlimit: 4; fill: rgb(71,68,109); fill-rule: nonzero; opacity: 1;"  paint-order="stroke"  transform=" translate(-296.7505, -301.999)" d="M 291.848 298.712 L 301.653 298.712 L 301.653 305.286 L 291.848 305.286 z" stroke-linecap="round" />
</g>
		<g transform="matrix(0.4095754685631657 0 0 -0.4095754685631657 -83.24605015527595 72.0315871231885)"  >
<path style="stroke: none; stroke-width: 1; stroke-dasharray: none; stroke-linecap: butt; stroke-dashoffset: 0; stroke-linejoin: miter; stroke-miterlimit: 4; fill: rgb(71,68,109); fill-rule: nonzero; opacity: 1;"  paint-order="stroke"  transform=" translate(-296.7505, -324.131)" d="M 291.848 320.844 L 301.653 320.844 L 301.653 327.418 L 291.848 327.418 z" stroke-linecap="round" />
</g>
		<g transform="matrix(0.4095754685631657 0 0 -0.4095754685631657 -83.24605015527595 67.49922498806853)"  >
<path style="stroke: none; stroke-width: 1; stroke-dasharray: none; stroke-linecap: butt; stroke-dashoffset: 0; stroke-linejoin: miter; stroke-miterlimit: 4; fill: rgb(71,68,109); fill-rule: nonzero; opacity: 1;"  paint-order="stroke"  transform=" translate(-296.7505, -335.197)" d="M 291.848 331.91 L 301.653 331.91 L 301.653 338.48400000000004 L 291.848 338.48400000000004 z" stroke-linecap="round" />
</g>
		<g transform="matrix(0.4095754685631657 0 0 -0.4095754685631657 -83.24605015527595 26.707146621051493)"  >
<path style="stroke: none; stroke-width: 1; stroke-dasharray: none; stroke-linecap: butt; stroke-dashoffset: 0; stroke-linejoin: miter; stroke-miterlimit: 4; fill: rgb(71,68,109); fill-rule: nonzero; opacity: 1;"  paint-order="stroke"  transform=" translate(-296.7505, -434.793)" d="M 291.848 431.506 L 301.653 431.506 L 301.653 438.08 L 291.848 438.08 z" stroke-linecap="round" />
</g>
		<g transform="matrix(0.4095754685631657 0 0 -0.4095754685631657 -77.45424345432423 67.49922498806853)"  >
<path style="stroke: none; stroke-width: 1; stroke-dasharray: none; stroke-linecap: butt; stroke-dashoffset: 0; stroke-linejoin: miter; stroke-miterlimit: 4; fill: rgb(71,68,109); fill-rule: nonzero; opacity: 1;"  paint-order="stroke"  transform=" translate(-310.89149999999995, -335.197)" d="M 305.989 331.91 L 315.794 331.91 L 315.794 338.48400000000004 L 305.989 338.48400000000004 z" stroke-linecap="round" />
</g>
		<g transform="matrix(0.4095754685631657 0 0 -0.4095754685631657 -77.45424345432423 76.56394925830847)"  >
<path style="stroke: none; stroke-width: 1; stroke-dasharray: none; stroke-linecap: butt; stroke-dashoffset: 0; stroke-linejoin: miter; stroke-miterlimit: 4; fill: rgb(71,68,109); fill-rule: nonzero; opacity: 1;"  paint-order="stroke"  transform=" translate(-310.89149999999995, -313.06500000000005)" d="M 305.989 309.778 L 315.794 309.778 L 315.794 316.35200000000003 L 305.989 316.35200000000003 z" stroke-linecap="round" />
</g>
		<g transform="matrix(0.4095754685631657 0 0 -0.4095754685631657 -77.45424345432423 72.0315871231885)"  >
<path style="stroke: none; stroke-width: 1; stroke-dasharray: none; stroke-linecap: butt; stroke-dashoffset: 0; stroke-linejoin: miter; stroke-miterlimit: 4; fill: rgb(71,68,109); fill-rule: nonzero; opacity: 1;"  paint-order="stroke"  transform=" translate(-310.89149999999995, -324.131)" d="M 305.989 320.844 L 315.794 320.844 L 315.794 327.418 L 305.989 327.418 z" stroke-linecap="round" />
</g>
		<g transform="matrix(0.4095754685631657 0 0 -0.4095754685631657 -77.45424345432423 58.43409114235993)"  >
<path style="stroke: none; stroke-width: 1; stroke-dasharray: none; stroke-linecap: butt; stroke-dashoffset: 0; stroke-linejoin: miter; stroke-miterlimit: 4; fill: rgb(71,68,109); fill-rule: nonzero; opacity: 1;"  paint-order="stroke"  transform=" translate(-310.89149999999995, -357.33000000000004)" d="M 305.989 354.043 L 315.794 354.043 L 315.794 360.617 L 305.989 360.617 z" stroke-linecap="round" />
</g>
		<g transform="matrix(0.4095754685631657 0 0 -0.4095754685631657 -77.45424345432423 62.96645327747996)"  >
<path style="stroke: none; stroke-width: 1; stroke-dasharray: none; stroke-linecap: butt; stroke-dashoffset: 0; stroke-linejoin: miter; stroke-miterlimit: 4; fill: rgb(71,68,109); fill-rule: nonzero; opacity: 1;"  paint-order="stroke"  transform=" translate(-310.89149999999995, -346.264)" d="M 305.989 342.977 L 315.794 342.977 L 315.794 349.551 L 305.989 349.551 z" stroke-linecap="round" />
</g>
		<g transform="matrix(0.4095754685631657 0 0 -0.4095754685631657 -77.45424345432423 85.62867352854852)"  >
<path style="stroke: none; stroke-width: 1; stroke-dasharray: none; stroke-linecap: butt; stroke-dashoffset: 0; stroke-linejoin: miter; stroke-miterlimit: 4; fill: rgb(71,68,109); fill-rule: nonzero; opacity: 1;"  paint-order="stroke"  transform=" translate(-310.89149999999995, -290.933)" d="M 305.989 287.646 L 315.794 287.646 L 315.794 294.22 L 305.989 294.22 z" stroke-linecap="round" />
</g>
		<g transform="matrix(0.4095754685631657 0 0 -0.4095754685631657 -83.24605015527595 22.17478448593144)"  >
<path style="stroke: none; stroke-width: 1; stroke-dasharray: none; stroke-linecap: butt; stroke-dashoffset: 0; stroke-linejoin: miter; stroke-miterlimit: 4; fill: rgb(71,68,109); fill-rule: nonzero; opacity: 1;"  paint-order="stroke"  transform=" translate(-296.7505, -445.85900000000004)" d="M 291.848 442.572 L 301.653 442.572 L 301.653 449.146 L 291.848 449.146 z" stroke-linecap="round" />
</g>
		<g transform="matrix(0.4095754685631657 0 0 -0.4095754685631657 -83.24605015527595 85.62867352854852)"  >
<path style="stroke: none; stroke-width: 1; stroke-dasharray: none; stroke-linecap: butt; stroke-dashoffset: 0; stroke-linejoin: miter; stroke-miterlimit: 4; fill: rgb(71,68,109); fill-rule: nonzero; opacity: 1;"  paint-order="stroke"  transform=" translate(-296.7505, -290.933)" d="M 291.848 287.646 L 301.653 287.646 L 301.653 294.22 L 291.848 294.22 z" stroke-linecap="round" />
</g>
		<g transform="matrix(0.4095754685631657 0 0 -0.4095754685631657 -83.24605015527595 17.64201277534295)"  >
<path style="stroke: none; stroke-width: 1; stroke-dasharray: none; stroke-linecap: butt; stroke-dashoffset: 0; stroke-linejoin: miter; stroke-miterlimit: 4; fill: rgb(71,68,109); fill-rule: nonzero; opacity: 1;"  paint-order="stroke"  transform=" translate(-296.7505, -456.92600000000004)" d="M 291.848 453.639 L 301.653 453.639 L 301.653 460.213 L 291.848 460.213 z" stroke-linecap="round" />
</g>
		<g transform="matrix(0.4095754685631657 0 0 -0.4095754685631657 -77.45424345432423 81.0963113934285)"  >
<path style="stroke: none; stroke-width: 1; stroke-dasharray: none; stroke-linecap: butt; stroke-dashoffset: 0; stroke-linejoin: miter; stroke-miterlimit: 4; fill: rgb(71,68,109); fill-rule: nonzero; opacity: 1;"  paint-order="stroke"  transform=" translate(-310.89149999999995, -301.999)" d="M 305.989 298.712 L 315.794 298.712 L 315.794 305.286 L 305.989 305.286 z" stroke-linecap="round" />
</g>
		<g transform="matrix(0.4095754685631657 0 0 -0.4095754685631657 -83.24605015527595 31.23950875617146)"  >
<path style="stroke: none; stroke-width: 1; stroke-dasharray: none; stroke-linecap: butt; stroke-dashoffset: 0; stroke-linejoin: miter; stroke-miterlimit: 4; fill: rgb(71,68,109); fill-rule: nonzero; opacity: 1;"  paint-order="stroke"  transform=" translate(-296.7505, -423.727)" d="M 291.848 420.44 L 301.653 420.44 L 301.653 427.014 L 291.848 427.014 z" stroke-linecap="round" />
</g>
		<g transform="matrix(0.4095754685631657 0 0 -0.4095754685631657 0 2.842171e-14)"  >
<path style="stroke: none; stroke-width: 1; stroke-dasharray: none; stroke-linecap: butt; stroke-dashoffset: 0; stroke-linejoin: miter; stroke-miterlimit: 4; fill: rgb(71,68,109); fill-rule: nonzero; opacity: 1;"  paint-order="stroke"  transform=" translate(343.371, -209.20199999999994)" d="M 0 0 L 11.353 -12.313 L 0.28 -12.313 Z M -14.226 -12.313 L -15.217 16.503 L -3.094000000000001 3.354000000000001 L -2.737000000000001 -12.312999999999999 z M -26.107 -12.313 L -27.558999999999997 29.887999999999998 L -18.351999999999997 19.901999999999997 L -17.242999999999995 -12.313000000000006 z M -78.938 -12.313 L -76.812 -0.7620000000000005 L -29.391999999999996 -4.5600000000000005 L -29.124999999999996 -12.313 z M -168.308 0.6150000000000002 L -168.308 10.521 L -77.172 13.943000000000001 L -79.309 2.335000000000001 z M -82.005 -12.313 L -168.308 -12.313 L -168.308 -2.4030000000000005 L -79.866 -0.6930000000000005 z M -291.039 169.53900000000002 L -279.786 303.433 L -160.243 173.786 L -168.308 74.766 L -168.308 156.507 z M -171.32399999999998 -12.312999999999988 L -273.65099999999995 -12.312999999999988 L -276.256 5.461000000000013 L -254.63199999999998 5.461000000000013 L -254.63199999999998 13.463000000000013 L -277.429 13.463000000000013 L -294.41499999999996 129.376 L -291.292 166.531 L -171.32399999999996 153.794 z M -382.80899999999997 -12.312999999999988 L -383.304 -4.731999999999988 L -277.811 -4.731999999999988 L -276.7 -12.312999999999988 z M -383.996 5.864000000000011 L -279.363 5.864000000000011 L -278.253 -1.7159999999999886 L -383.501 -1.7159999999999886 z M -384.688 16.46000000000001 L -280.916 16.46000000000001 L -279.806 8.88100000000001 L -384.193 8.88100000000001 z M -385.38 27.05700000000001 L -282.47 27.05700000000001 L -281.358 19.47700000000001 L -384.885 19.47700000000001 z M -386.072 37.65200000000001 L -284.022 37.65200000000001 L -282.911 30.073000000000008 L -385.577 30.073000000000008 z M -467.317 -12.312999999999995 L -466.454 -2.6069999999999958 L -386.38800000000003 -3.795999999999996 L -385.83200000000005 -12.312999999999995 z M -504.73900000000003 5.924000000000003 L -503.915 11.803000000000003 L -467.26300000000003 22.349000000000004 L -468.1 12.932000000000004 z M -469.223 0.30400000000000293 L -506.01800000000003 -3.203999999999997 L -505.18100000000004 2.769000000000003 L -468.37800000000004 9.808000000000003 z M -470.345 -12.312999999999999 L -507.29400000000004 -12.312999999999999 L -506.44800000000004 -6.273999999999999 L -469.495 -2.7519999999999993 z M -508.13500000000005 3.4220000000000006 L -509.1 3.4220000000000006 L -509.1 -3.1519999999999992 L -509.057 -3.1519999999999992 L -510.34000000000003 -12.312999999999999 L -588.716 -12.312999999999999 L -605.456 185.982 L -490.505 178.668 L -490.505 129.229 L -499.295 66.50800000000001 L -499.295 69.81900000000002 L -509.1 69.81900000000002 L -509.1 63.24500000000002 L -499.752 63.24500000000002 L -500.38100000000003 58.75300000000002 L -509.1 58.75300000000002 L -509.1 52.17900000000002 L -501.303 52.17900000000002 L -501.932 47.687000000000026 L -509.1 47.687000000000026 L -509.1 41.11200000000002 L -502.85400000000004 41.11200000000002 L -503.48300000000006 36.620000000000026 L -509.1000000000001 36.620000000000026 L -509.1000000000001 30.046000000000028 L -504.40400000000005 30.046000000000028 L -505.03400000000005 25.555000000000028 L -509.1 25.555000000000028 L -509.1 18.98 L -505.95500000000004 18.98 L -506.58400000000006 14.488 L -509.1 14.488 L -509.1 7.914 L -507.50600000000003 7.914 z M -698.096 -12.312999999999999 L -690.964 -4.5779999999999985 L -592.4480000000001 -3.9699999999999984 L -591.7440000000001 -12.312999999999999 z M -680.965 6.266000000000002 L -593.4060000000001 7.378000000000002 L -592.7030000000001 -0.9539999999999988 L -688.166 -1.5439999999999987 z M -670.874 17.21 L -594.363 18.711000000000002 L -593.6600000000001 10.392000000000001 L -678.1500000000001 9.318000000000001 z M -660.677 28.269 L -595.318 30.029999999999998 L -594.617 21.723999999999997 L -668.04 20.282999999999998 z M -650.364 39.452999999999996 L -596.272 41.331999999999994 L -595.572 33.041 L -657.824 31.362999999999996 z M -639.921 50.77799999999999 L -597.225 52.61599999999999 L -596.5260000000001 44.34199999999999 L -647.49 42.56999999999999 z M -629.331 62.26499999999999 L -598.176 63.88199999999999 L -597.479 55.62599999999999 L -637.0210000000001 53.92299999999999 z M -618.572 73.93199999999999 L -599.125 75.12499999999999 L -598.43 66.88999999999999 L -626.405 65.43799999999999 z M -607.625 85.80499999999999 L -600.072 86.345 L -599.379 78.132 L -615.619 77.135 z M -600.664 93.354 L -600.326 89.351 L -604.64 89.042 z M -356.881 357.739 L -365.50899999999996 298.866 L -403.64799999999997 287.224 L -390.347 129.375 L -391.53299999999996 121.28 L -394.811 171.46699999999998 L -451.464 191.88899999999998 L -487.489 134.373 L -487.489 181.498 L -517.62 183.416 z M -343.138 430.717 L -341.62399999999997 430.717 L -324.15099999999995 311.49 L -362.31699999999995 299.84000000000003 z M -295.328 320.288 L -321.23299999999995 312.38100000000003 L -327.506 355.18600000000004 z M -388.42499999999995 142.491 L -400.43799999999993 285.05 L -365.99299999999994 295.564 z M -367.68799999999993 263.188 L -366.5779999999999 270.768 L -318.1839999999999 270.768 L -317.0729999999999 263.188 z M -369.2419999999999 252.59199999999998 L -368.1309999999999 260.171 L -316.6309999999999 260.171 L -315.5209999999999 252.59199999999998 z M -370.7939999999999 241.99499999999998 L -369.6839999999999 249.575 L -315.0779999999999 249.575 L -313.9679999999999 241.99499999999998 z M -372.3469999999999 231.39899999999997 L -371.23599999999993 238.97899999999998 L -313.5249999999999 238.97899999999998 L -312.4149999999999 231.39899999999997 z M -373.8999999999999 220.80299999999997 L -372.78899999999993 228.38199999999998 L -311.97299999999996 228.38199999999998 L -310.86199999999997 220.80299999999997 z M -375.4529999999999 210.20699999999997 L -374.3419999999999 217.78699999999998 L -310.41999999999996 217.78699999999998 L -309.30999999999995 210.20699999999997 z M -377.00499999999994 199.61099999999996 L -375.8949999999999 207.18999999999997 L -308.8669999999999 207.18999999999997 L -307.7559999999999 199.61099999999996 z M -378.5589999999999 189.01499999999996 L -377.4479999999999 196.59499999999997 L -307.3139999999999 196.59499999999997 L -306.2029999999999 189.01499999999996 z M -380.11099999999993 178.41899999999995 L -378.99999999999994 185.99799999999996 L -305.76199999999994 185.99799999999996 L -304.6499999999999 178.41899999999995 z M -381.66399999999993 167.82199999999995 L -380.55299999999994 175.40199999999996 L -304.20899999999995 175.40199999999996 L -303.09799999999996 167.82199999999995 z M -383.2169999999999 157.22699999999995 L -382.10599999999994 164.80599999999995 L -302.65599999999995 164.80599999999995 L -301.54499999999996 157.22699999999995 z M -384.7699999999999 146.62999999999994 L -383.65899999999993 154.20999999999995 L -301.1039999999999 154.20999999999995 L -299.9919999999999 146.62999999999994 z M -386.32199999999995 136.03299999999993 L -385.21099999999996 143.61399999999992 L -299.54999999999995 143.61399999999992 L -298.43899999999996 136.03299999999993 z M -296.44399999999996 122.42099999999994 L -295.33399999999995 114.84099999999994 L -389.42799999999994 114.84099999999994 L -388.31699999999995 122.42099999999994 z M -297.371 128.74499999999995 L -296.887 125.43799999999995 L -387.875 125.43799999999995 L -387.391 128.74499999999995 L -387.26800000000003 128.75599999999994 L -387.312 129.28199999999995 L -386.765 133.01699999999997 L -297.99699999999996 133.01699999999997 L -297.44999999999993 129.28199999999995 L -297.4939999999999 128.75499999999997 z M -319.736 281.36299999999994 L -318.626 273.78399999999993 L -366.13599999999997 273.78399999999993 L -365.025 281.36299999999994 z M -363.03 294.97599999999994 L -362.801 296.53899999999993 L -323.709 308.47099999999995 L -321.731 294.97599999999994 z M -321.289 291.95899999999995 L -320.179 284.37999999999994 L -364.58299999999997 284.37999999999994 L -363.47299999999996 291.95899999999995 z M -390.421 104.24499999999995 L -390.593 106.88899999999995 L -389.87 111.82499999999996 L -294.892 111.82499999999996 L -293.781 104.24499999999996 z M -389.729 93.64899999999994 L -390.224 101.22899999999994 L -293.339 101.22899999999994 L -292.229 93.64899999999994 z M -389.037 83.05399999999995 L -389.532 90.63299999999994 L -291.786 90.63299999999994 L -290.676 83.05399999999995 z M -388.34499999999997 72.45699999999995 L -388.84 80.03699999999995 L -290.23299999999995 80.03699999999995 L -289.12299999999993 72.45699999999995 z M -387.65299999999996 61.85999999999995 L -388.14799999999997 69.43999999999996 L -288.681 69.43999999999996 L -287.56899999999996 61.85999999999996 z M -386.96099999999996 51.26499999999995 L -387.45599999999996 58.84399999999995 L -287.12799999999993 58.84399999999995 L -286.01699999999994 51.26499999999995 z M -386.76399999999995 48.24799999999995 L -285.57499999999993 48.24799999999995 L -284.46399999999994 40.66899999999995 L -386.26899999999995 40.66899999999995 z M -465.32199999999995 10.11299999999995 L -387.14199999999994 7.73799999999995 L -386.5849999999999 -0.7750000000000501 L -466.1859999999999 0.40599999999994996 z M -466.14799999999997 34.87199999999995 L -466.97599999999994 25.56999999999995 L -503.45699999999994 15.07299999999995 L -502.6499999999999 20.82599999999995 z M -465.03599999999994 47.37799999999995 L -465.85099999999994 38.21899999999995 L -502.1719999999999 24.24199999999995 L -501.3869999999999 29.84099999999995 z M -463.92499999999995 59.86699999999995 L -464.72499999999997 50.87799999999994 L -500.88399999999996 33.43399999999994 L -500.12499999999994 38.84699999999994 z M -462.816 72.33999999999995 L -463.59799999999996 63.54599999999995 L -499.59299999999996 42.64499999999995 L -498.864 47.845999999999954 z M -461.70799999999997 84.79699999999994 L -462.47099999999995 76.22199999999994 L -498.299 51.875999999999934 L -497.604 56.835999999999935 z M -460.602 97.23799999999994 L -461.34299999999996 88.90499999999994 L -497.00199999999995 61.12899999999995 L -496.34499999999997 65.82099999999994 z M -459.496 109.66499999999994 L -460.214 101.59599999999993 L -495.703 70.40199999999993 L -495.08599999999996 74.80099999999993 z M -458.392 122.07699999999994 L -459.085 114.29099999999994 L -494.4 79.69499999999994 L -493.82899999999995 83.77499999999993 z M -457.29 134.47599999999994 L -457.95500000000004 126.99199999999995 L -493.095 89.01099999999994 L -492.572 92.74499999999993 z M -456.18800000000005 146.85999999999996 L -456.82500000000005 139.69699999999995 L -491.78700000000003 98.34699999999995 L -491.31500000000005 101.71299999999995 z M -455.088 159.22899999999996 L -455.69500000000005 152.40599999999995 L -490.47600000000006 107.70499999999996 L -490.0590000000001 110.67599999999996 z M -453.98900000000003 171.58599999999996 L -454.564 165.11799999999997 L -489.161 117.08499999999997 L -488.803 119.63699999999997 z M -453.43300000000005 177.83299999999997 L -487.8430000000001 126.48699999999997 L -487.54800000000006 128.59499999999997 L -452.8910000000001 183.92799999999997 z M -454.87700000000007 127.54499999999997 L -454.01700000000005 137.21699999999998 L -394.677 123.12199999999999 L -394.127 114.70599999999999 z M -456.00800000000004 114.83399999999997 L -455.146 124.51899999999998 L -393.923 111.57899999999998 L -393.372 103.14599999999999 z M -457.139 102.12399999999997 L -456.276 111.81499999999997 L -393.169 100.03799999999997 L -392.61699999999996 91.58799999999997 z M -458.269 89.41199999999996 L -457.406 99.10999999999996 L -392.416 88.49799999999996 L -391.863 80.03399999999996 z M -459.4 76.69899999999997 L -458.537 86.40299999999996 L -391.662 76.95899999999996 L -391.108 68.48199999999996 z M -460.53099999999995 63.98499999999997 L -459.667 73.69199999999998 L -390.90799999999996 65.41999999999997 L -390.354 56.934999999999974 z M -461.6619999999999 51.27099999999997 L -460.79799999999994 60.979999999999976 L -390.155 53.882999999999974 L -389.59999999999997 45.388999999999974 z M -462.7919999999999 38.55599999999997 L -461.9289999999999 48.26599999999997 L -389.4009999999999 42.34599999999997 L -388.8459999999999 33.84499999999997 z M -387.8949999999999 19.272999999999968 L -387.33899999999994 10.762999999999968 L -465.05499999999995 13.122999999999967 L -464.191 22.83299999999997 z M -463.92299999999994 25.839999999999968 L -463.05999999999995 35.54999999999997 L -388.6479999999999 30.80899999999997 L -388.0929999999999 22.30299999999997 z M -395.4309999999999 134.66499999999996 L -394.88199999999995 126.27099999999996 L -453.74699999999996 140.25399999999996 L -452.888 149.91299999999995 z M -396.18499999999995 146.20799999999997 L -395.6379999999999 137.84099999999998 L -452.6169999999999 152.962 L -451.7589999999999 162.605 z M -450.35599999999994 178.37599999999998 L -449.50199999999995 187.97499999999997 L -397.69199999999995 169.29799999999997 L -397.15 160.99499999999998 z M -396.93799999999993 157.753 L -396.39399999999995 149.415 L -451.48599999999993 165.66899999999998 L -450.62999999999994 175.29199999999997 z M -281.30299999999994 321.416 L -296.33899999999994 142.504 L -320.79099999999994 309.36199999999997 z M -50.22099999999995 160.344 L -52.33299999999995 148.867 L -160.79199999999994 129.87599999999998 L -159.99399999999994 139.68099999999998 z M -158.94199999999995 152.593 L -47.52499999999995 174.986 L -49.63499999999995 163.524 L -159.73999999999995 142.799 z M -157.89099999999996 165.505 L -44.828999999999965 189.63 L -46.93699999999996 178.182 L -158.68699999999995 155.721 z M -156.83899999999997 178.416 L -42.13399999999997 204.272 L -44.23799999999997 192.84 L -157.635 168.644 z M -155.78799999999998 191.326 L -39.43799999999999 218.916 L -41.539999999999985 207.499 L -156.583 181.565 z M -38.26299999999998 208.64 L -37.403999999999975 195.226 L -38.711999999999975 206.197 z M -41.403999999999975 191.57199999999997 L -40.556999999999974 196.17899999999997 L -37.370999999999974 169.43899999999996 z M -36.08199999999997 145.53299999999996 L -44.09499999999997 176.95499999999996 L -42.94499999999997 183.19999999999996 z M -33.82099999999997 124.21199999999996 L -46.78399999999997 162.34599999999995 L -45.39999999999997 169.86399999999995 L -33.83199999999997 124.49899999999994 z M -33.37299999999997 111.17999999999996 L -49.47299999999997 147.74399999999997 L -47.90399999999997 156.265 L -33.462999999999965 113.78299999999999 z M -32.95099999999997 98.89699999999996 L -52.15899999999997 133.15199999999996 L -50.44399999999997 142.46499999999995 L -33.093999999999966 103.05899999999994 z M -32.72499999999997 92.32599999999996 L -32.543999999999976 87.07299999999996 L -54.842999999999975 118.57099999999997 L -53.013999999999974 128.50899999999996 z M -32.14699999999997 75.54799999999997 L -57.52499999999997 104.00099999999998 L -55.60499999999997 114.42899999999997 L -32.35499999999997 81.58699999999997 z M -31.75899999999997 64.23299999999998 L -60.20499999999997 89.44099999999997 L -58.21699999999997 100.24499999999998 L -31.98499999999997 70.83499999999998 z M -31.373999999999967 53.068999999999974 L -62.88399999999997 74.89199999999997 L -60.84399999999997 85.97599999999997 L -31.614999999999974 60.07599999999997 z M -30.993999999999968 42.016999999999975 L -65.56199999999997 60.34999999999997 L -63.48299999999997 71.63699999999997 L -31.24499999999997 49.309999999999974 z M -30.61699999999997 31.048999999999975 L -68.23699999999997 45.812999999999974 L -66.13399999999997 57.23799999999997 L -30.87499999999997 38.53899999999997 z M -30.24199999999997 20.144999999999975 L -70.91199999999998 31.280999999999974 L -68.79299999999998 42.79199999999997 L -30.503999999999976 27.763999999999974 z M -29.86799999999997 9.290999999999976 L -73.58699999999997 16.750999999999976 L -71.46099999999997 28.303999999999977 L -30.132999999999967 16.986999999999977 z M -74.47699999999998 28.582999999999977 L -76.61199999999998 16.982999999999976 L -168.308 13.539999999999976 L -168.308 23.49999999999998 z M -71.78199999999998 43.22199999999998 L -73.91499999999998 31.63399999999998 L -168.308 26.52099999999998 L -168.308 36.363999999999976 z M -69.08699999999999 57.85999999999998 L -71.21799999999999 46.28599999999998 L -168.161 39.39899999999998 L -167.356 49.27599999999998 z M -66.392 72.49999999999997 L -68.521 60.937999999999974 L -167.108 52.324999999999974 L -166.305 62.19299999999998 z M -63.696999999999996 87.13999999999997 L -65.823 75.59099999999998 L -166.05599999999998 65.25099999999998 L -165.253 75.10999999999997 z M -61.001999999999995 101.77899999999997 L -63.12499999999999 90.24399999999997 L -165.003 78.17699999999996 L -164.201 88.02499999999996 z M -58.306999999999995 116.41899999999997 L -60.428 104.89899999999997 L -163.95 91.10299999999998 L -163.149 100.93999999999998 z M -161.845 116.95099999999996 L -161.046 126.76899999999996 L -52.916 145.70199999999997 L -55.031 134.20999999999998 z M -55.611000000000004 131.06099999999998 L -57.729000000000006 119.55499999999998 L -162.89700000000002 104.02699999999997 L -162.098 113.85499999999998 z M -29.496000000000006 -1.525000000000034 L -76.262 2.220999999999966 L -74.134 13.783999999999967 L -29.762999999999998 6.211999999999967 z M -27.718000000000007 34.51099999999997 L -31.922000000000008 156.73599999999996 L -32.81600000000001 156.70599999999996 L -32.81800000000001 156.72399999999996 L -31.92500000000001 156.77999999999997 L -36.14500000000001 222.79699999999997 L -158.61700000000002 193.75599999999997 L -159.91000000000003 177.87499999999997 L -279.44300000000004 307.51099999999997 L -277.92300000000006 325.60099999999994 L -292.12700000000007 321.26599999999996 L -328.28100000000006 360.477 L -338.8280000000001 432.44399999999996 L -339.0180000000001 433.73299999999995 L -342.3810000000001 433.73299999999995 L -345.74500000000006 433.73299999999995 L -356.10600000000005 363.03 L -521.4960000000001 183.66199999999998 L -608.7560000000001 189.21599999999998 L -601.008 97.43099999999998 L -704.98 -15.329000000000022 L -591.489 -15.329000000000022 L -509.02900000000005 -15.329000000000022 L -468.96500000000003 -15.329000000000022 L -384.22200000000004 -15.329000000000022 L -382.612 -15.329000000000022 L -274.954 -15.329000000000022 L -169.816 -15.329000000000022 L -168.308 -15.329000000000022 L -80.749 -15.329000000000022 L -27.563999999999993 -15.329000000000022 L 18.238000000000007 -15.329000000000022 z" stroke-linecap="round" />
</g>
</g>
</g>
</svg>
